<svg xmlns="http://www.w3.org/2000/svg" viewBox="0 0 960 540" role="img" aria-labelledby="title desc">
  <title id="title">AI Powered Dashboard preview</title>
  <desc id="desc">Professional portfolio mockup using demo data only.</desc>
  <rect width="960" height="540" rx="28" fill="#f3f6fb"/>
  <rect x="0" y="0" width="960" height="92" rx="28" fill="#0b1f3a"/>
  <rect x="0" y="68" width="960" height="24" fill="#0b1f3a"/>
  <text x="42" y="45" fill="#ffffff" font-family="Arial, sans-serif" font-size="30" font-weight="800">AI Powered Dashboard</text>
  <text x="42" y="70" fill="#c7d4e8" font-family="Arial, sans-serif" font-size="14">Spreadsheet intelligence for business performance reports</text>
  <text x="628" y="55" fill="#c7d4e8" font-family="Arial, sans-serif" font-size="13">Source: Demo workbook | Generated from sample data</text>
  <rect x="796" y="24" width="116" height="34" rx="17" fill="#ffffff" opacity="0.12"/>
  <text x="820" y="46" fill="#e8eef8" font-family="Arial, sans-serif" font-size="12" font-weight="700">DEMO DATA</text>
  <g><rect x="42" y="120" width="160" height="82" rx="16" fill="#ffffff" stroke="#dbe4ef"/><rect x="42" y="120" width="160" height="10" rx="5" fill="#2563eb"/><text x="60" y="154" fill="#5b6b84" font-family="Arial, sans-serif" font-size="14" font-weight="700">Rows Analyzed</text><text x="60" y="185" fill="#111827" font-family="Arial, sans-serif" font-size="27" font-weight="800">18,420</text><text x="60" y="200" fill="#60708a" font-family="Arial, sans-serif" font-size="12">mock records</text></g>
  <g><rect x="222" y="120" width="160" height="82" rx="16" fill="#ffffff" stroke="#dbe4ef"/><rect x="222" y="120" width="160" height="10" rx="5" fill="#22c55e"/><text x="240" y="154" fill="#5b6b84" font-family="Arial, sans-serif" font-size="14" font-weight="700">Revenue</text><text x="240" y="185" fill="#111827" font-family="Arial, sans-serif" font-size="27" font-weight="800">$128.4K</text><text x="240" y="200" fill="#60708a" font-family="Arial, sans-serif" font-size="12">sample month</text></g>
  <g><rect x="402" y="120" width="160" height="82" rx="16" fill="#ffffff" stroke="#dbe4ef"/><rect x="402" y="120" width="160" height="10" rx="5" fill="#14b8a6"/><text x="420" y="154" fill="#5b6b84" font-family="Arial, sans-serif" font-size="14" font-weight="700">Growth</text><text x="420" y="185" fill="#111827" font-family="Arial, sans-serif" font-size="27" font-weight="800">18.6%</text><text x="420" y="200" fill="#60708a" font-family="Arial, sans-serif" font-size="12">demo trend</text></g>
  <g><rect x="582" y="120" width="160" height="82" rx="16" fill="#ffffff" stroke="#dbe4ef"/><rect x="582" y="120" width="160" height="10" rx="5" fill="#7c3aed"/><text x="600" y="154" fill="#5b6b84" font-family="Arial, sans-serif" font-size="14" font-weight="700">Dataset</text><text x="600" y="185" fill="#111827" font-family="Arial, sans-serif" font-size="27" font-weight="800">Retail Ops</text><text x="600" y="200" fill="#60708a" font-family="Arial, sans-serif" font-size="12">auto detected</text></g>
  <g><rect x="762" y="120" width="160" height="82" rx="16" fill="#ffffff" stroke="#dbe4ef"/><rect x="762" y="120" width="160" height="10" rx="5" fill="#f59e0b"/><text x="780" y="154" fill="#5b6b84" font-family="Arial, sans-serif" font-size="14" font-weight="700">Report</text><text x="780" y="185" fill="#111827" font-family="Arial, sans-serif" font-size="27" font-weight="800">4 pages</text><text x="780" y="200" fill="#60708a" font-family="Arial, sans-serif" font-size="12">PDF ready</text></g>
  <rect x="42" y="232" width="390" height="150" rx="18" fill="#ffffff" stroke="#dbe4ef"/>
  <text x="70" y="268" fill="#111827" font-family="Arial, sans-serif" font-size="20" font-weight="800">Revenue Trend</text>
  <rect x="78" y="332" width="20" height="36" rx="6" fill="#2563eb"/><rect x="112" y="314" width="20" height="54" rx="6" fill="#2563eb"/><rect x="146" y="322" width="20" height="46" rx="6" fill="#2563eb"/><rect x="180" y="296" width="20" height="72" rx="6" fill="#2563eb"/><rect x="214" y="306" width="20" height="62" rx="6" fill="#2563eb"/><rect x="248" y="282" width="20" height="86" rx="6" fill="#2563eb"/><text x="78" y="358" fill="#61708a" font-family="Arial" font-size="12">Jan</text><text x="248" y="358" fill="#61708a" font-family="Arial" font-size="12">Jun</text><rect x="304" y="285" width="82" height="34" rx="10" fill="#eaf2ff"/><text x="322" y="307" fill="#2563eb" font-family="Arial" font-size="13" font-weight="700">+18.6%</text>
  <rect x="462" y="232" width="456" height="150" rx="18" fill="#ffffff" stroke="#dbe4ef"/>
  <text x="490" y="268" fill="#111827" font-family="Arial, sans-serif" font-size="20" font-weight="800">AI Summary</text>
  <rect x="490" y="292" width="376" height="14" rx="7" fill="#e8eef6"/><rect x="490" y="320" width="320" height="12" rx="6" fill="#eef3f8"/><rect x="490" y="346" width="354" height="12" rx="6" fill="#eef3f8"/><rect x="812" y="286" width="72" height="32" rx="10" fill="#2563eb"/><text x="830" y="307" fill="#fff" font-family="Arial" font-size="12" font-weight="700">Draft</text>
  <rect x="42" y="408" width="876" height="86" rx="18" fill="#ffffff" stroke="#dbe4ef"/>
  <text x="70" y="442" fill="#111827" font-family="Arial, sans-serif" font-size="20" font-weight="800">Key findings</text>
  <circle cx="76" cy="466" r="4" fill="#2563eb"/><text x="92" y="471" fill="#182235" font-family="Arial, sans-serif" font-size="13">Sample revenue improved across the demo period.</text>
  <circle cx="76" cy="486" r="4" fill="#2563eb"/><text x="92" y="491" fill="#182235" font-family="Arial, sans-serif" font-size="13">The dashboard uses fake records for portfolio display only.</text>
</svg>
