<svg xmlns="http://www.w3.org/2000/svg" viewBox="0 0 960 540" role="img" aria-labelledby="title desc">
  <title id="title">Employee Time Tracking &amp; Payroll preview</title>
  <desc id="desc">Professional portfolio mockup using demo data only.</desc>
  <rect width="960" height="540" rx="28" fill="#f3f6fb"/>
  <rect x="0" y="0" width="960" height="92" rx="28" fill="#0b1f3a"/>
  <rect x="0" y="68" width="960" height="24" fill="#0b1f3a"/>
  <text x="42" y="45" fill="#ffffff" font-family="Arial, sans-serif" font-size="30" font-weight="800">Employee Time Tracking &amp; Payroll</text>
  <text x="42" y="70" fill="#c7d4e8" font-family="Arial, sans-serif" font-size="14">Timesheets, overtime review, payroll summaries, and exports</text>
  <text x="628" y="55" fill="#c7d4e8" font-family="Arial, sans-serif" font-size="13">Source: Mock Team June 2026 | Sample payroll</text>
  <rect x="796" y="24" width="116" height="34" rx="17" fill="#ffffff" opacity="0.12"/>
  <text x="820" y="46" fill="#e8eef8" font-family="Arial, sans-serif" font-size="12" font-weight="700">DEMO DATA</text>
  <g><rect x="42" y="120" width="160" height="82" rx="16" fill="#ffffff" stroke="#dbe4ef"/><rect x="42" y="120" width="160" height="10" rx="5" fill="#2563eb"/><text x="60" y="154" fill="#5b6b84" font-family="Arial, sans-serif" font-size="14" font-weight="700">Staff</text><text x="60" y="185" fill="#111827" font-family="Arial, sans-serif" font-size="27" font-weight="800">42</text><text x="60" y="200" fill="#60708a" font-family="Arial, sans-serif" font-size="12">demo users</text></g>
  <g><rect x="222" y="120" width="160" height="82" rx="16" fill="#ffffff" stroke="#dbe4ef"/><rect x="222" y="120" width="160" height="10" rx="5" fill="#22c55e"/><text x="240" y="154" fill="#5b6b84" font-family="Arial, sans-serif" font-size="14" font-weight="700">Hours</text><text x="240" y="185" fill="#111827" font-family="Arial, sans-serif" font-size="27" font-weight="800">1,286</text><text x="240" y="200" fill="#60708a" font-family="Arial, sans-serif" font-size="12">sample total</text></g>
  <g><rect x="402" y="120" width="160" height="82" rx="16" fill="#ffffff" stroke="#dbe4ef"/><rect x="402" y="120" width="160" height="10" rx="5" fill="#14b8a6"/><text x="420" y="154" fill="#5b6b84" font-family="Arial, sans-serif" font-size="14" font-weight="700">Overtime</text><text x="420" y="185" fill="#111827" font-family="Arial, sans-serif" font-size="27" font-weight="800">83.5</text><text x="420" y="200" fill="#60708a" font-family="Arial, sans-serif" font-size="12">mock hours</text></g>
  <g><rect x="582" y="120" width="160" height="82" rx="16" fill="#ffffff" stroke="#dbe4ef"/><rect x="582" y="120" width="160" height="10" rx="5" fill="#7c3aed"/><text x="600" y="154" fill="#5b6b84" font-family="Arial, sans-serif" font-size="14" font-weight="700">Payroll</text><text x="600" y="185" fill="#111827" font-family="Arial, sans-serif" font-size="27" font-weight="800">P482K</text><text x="600" y="200" fill="#60708a" font-family="Arial, sans-serif" font-size="12">dummy amount</text></g>
  <g><rect x="762" y="120" width="160" height="82" rx="16" fill="#ffffff" stroke="#dbe4ef"/><rect x="762" y="120" width="160" height="10" rx="5" fill="#f59e0b"/><text x="780" y="154" fill="#5b6b84" font-family="Arial, sans-serif" font-size="14" font-weight="700">Export</text><text x="780" y="185" fill="#111827" font-family="Arial, sans-serif" font-size="27" font-weight="800">Ready</text><text x="780" y="200" fill="#60708a" font-family="Arial, sans-serif" font-size="12">CSV/PDF</text></g>
  <rect x="42" y="232" width="390" height="150" rx="18" fill="#ffffff" stroke="#dbe4ef"/>
  <text x="70" y="268" fill="#111827" font-family="Arial, sans-serif" font-size="20" font-weight="800">Hours by Week</text>
  <rect x="82" y="298" width="20" height="70" rx="6" fill="#22c55e"/><rect x="116" y="306" width="20" height="62" rx="6" fill="#22c55e"/><rect x="150" y="280" width="20" height="88" rx="6" fill="#22c55e"/><rect x="184" y="292" width="20" height="76" rx="6" fill="#22c55e"/><rect x="218" y="314" width="20" height="54" rx="6" fill="#22c55e"/><rect x="252" y="288" width="20" height="80" rx="6" fill="#22c55e"/><text x="80" y="360" fill="#61708a" font-family="Arial" font-size="12">W1</text><text x="250" y="360" fill="#61708a" font-family="Arial" font-size="12">W6</text>
  <rect x="462" y="232" width="456" height="150" rx="18" fill="#ffffff" stroke="#dbe4ef"/>
  <text x="490" y="268" fill="#111827" font-family="Arial, sans-serif" font-size="20" font-weight="800">Payroll Queue</text>
  <rect x="490" y="292" width="360" height="18" rx="9" fill="#dcfce7"/><rect x="490" y="324" width="284" height="18" rx="9" fill="#e8eef6"/><rect x="490" y="356" width="322" height="18" rx="9" fill="#e8eef6"/><text x="820" y="306" fill="#15803d" font-family="Arial" font-size="12" font-weight="700">OK</text>
  <rect x="42" y="408" width="876" height="86" rx="18" fill="#ffffff" stroke="#dbe4ef"/>
  <text x="70" y="442" fill="#111827" font-family="Arial, sans-serif" font-size="20" font-weight="800">Key findings</text>
  <circle cx="76" cy="466" r="4" fill="#22c55e"/><text x="92" y="471" fill="#182235" font-family="Arial, sans-serif" font-size="13">Shows payroll workflow without exposing employee records.</text>
  <circle cx="76" cy="486" r="4" fill="#22c55e"/><text x="92" y="491" fill="#182235" font-family="Arial, sans-serif" font-size="13">Uses mock staff counts, hours, and payroll amounts.</text>
</svg>
