<svg xmlns="http://www.w3.org/2000/svg" viewBox="0 0 960 540" role="img" aria-labelledby="title desc">
  <title id="title">AI Website Analyzer preview</title>
  <desc id="desc">AI website analyzer mockup with preview, quality scores, and recommendations.</desc>
  <rect width="960" height="540" rx="28" fill="#101725"/>
  <rect x="52" y="48" width="856" height="444" rx="24" fill="#151f31" stroke="#29364b"/>
  <text x="84" y="94" fill="#ffffff" font-family="Arial, sans-serif" font-size="28" font-weight="800">AI Website Analyzer</text>
  <text x="84" y="119" fill="#93a1bd" font-family="Arial, sans-serif" font-size="15">Conversion, SEO, accessibility, and content clarity review</text>
  <rect x="84" y="154" width="384" height="274" rx="18" fill="#f8fafc"/>
  <rect x="84" y="154" width="384" height="46" rx="18" fill="#e8eef7"/>
  <circle cx="116" cy="177" r="7" fill="#ff5f57"/>
  <circle cx="140" cy="177" r="7" fill="#febc2e"/>
  <circle cx="164" cy="177" r="7" fill="#28c840"/>
  <rect x="116" y="232" width="210" height="22" rx="11" fill="#111827"/>
  <rect x="116" y="268" width="300" height="13" rx="7" fill="#cbd5e1"/>
  <rect x="116" y="292" width="248" height="13" rx="7" fill="#e2e8f0"/>
  <rect x="116" y="334" width="118" height="38" rx="10" fill="#38e1c4"/>
  <rect x="254" y="334" width="118" height="38" rx="10" fill="#e8eef7"/>
  <rect x="516" y="154" width="328" height="74" rx="16" fill="#19263a" stroke="#2e3c51"/>
  <text x="544" y="185" fill="#ffffff" font-family="Arial, sans-serif" font-size="18" font-weight="800">AI Summary</text>
  <text x="544" y="208" fill="#93a1bd" font-family="Arial, sans-serif" font-size="14">Homepage is clear, but CTA hierarchy can improve.</text>
  <g>
    <rect x="516" y="252" width="96" height="88" rx="16" fill="#0f766e"/>
    <text x="546" y="294" fill="#ffffff" font-family="Arial, sans-serif" font-size="30" font-weight="800">88</text>
    <text x="538" y="318" fill="#d8fff8" font-family="Arial, sans-serif" font-size="12">Content</text>
    <rect x="632" y="252" width="96" height="88" rx="16" fill="#3749a6"/>
    <text x="662" y="294" fill="#ffffff" font-family="Arial, sans-serif" font-size="30" font-weight="800">81</text>
    <text x="655" y="318" fill="#dfe5ff" font-family="Arial, sans-serif" font-size="12">SEO</text>
    <rect x="748" y="252" width="96" height="88" rx="16" fill="#7c3aed"/>
    <text x="778" y="294" fill="#ffffff" font-family="Arial, sans-serif" font-size="30" font-weight="800">76</text>
    <text x="768" y="318" fill="#f1e8ff" font-family="Arial, sans-serif" font-size="12">UX</text>
  </g>
  <rect x="516" y="364" width="328" height="64" rx="16" fill="#19263a" stroke="#2e3c51"/>
  <path d="M544 397h244" stroke="#38e1c4" stroke-width="8" stroke-linecap="round"/>
  <path d="M544 416h180" stroke="#2e3c51" stroke-width="8" stroke-linecap="round"/>
</svg>
