<svg xmlns="http://www.w3.org/2000/svg" viewBox="0 0 960 540" role="img" aria-labelledby="title desc">
  <title id="title">AI Proposal Generator preview</title>
  <desc id="desc">AI proposal generator mockup with service inputs, pricing table, timeline, and generated proposal.</desc>
  <rect width="960" height="540" rx="28" fill="#f7f5ff"/>
  <rect x="50" y="48" width="860" height="444" rx="24" fill="#ffffff" stroke="#ddd6fe"/>
  <text x="84" y="96" fill="#1f1735" font-family="Arial, sans-serif" font-size="28" font-weight="800">AI Proposal Generator</text>
  <text x="84" y="121" fill="#6b647f" font-family="Arial, sans-serif" font-size="15">Scope, pricing, timelines, and ready-to-send proposal copy</text>
  <rect x="84" y="158" width="318" height="284" rx="20" fill="#faf9ff" stroke="#ddd6fe"/>
  <text x="112" y="194" fill="#1f1735" font-family="Arial, sans-serif" font-size="20" font-weight="800">Client Requirements</text>
  <rect x="112" y="224" width="244" height="16" rx="8" fill="#e9d5ff"/>
  <rect x="112" y="258" width="202" height="16" rx="8" fill="#ede9fe"/>
  <rect x="112" y="292" width="226" height="16" rx="8" fill="#ede9fe"/>
  <rect x="112" y="338" width="112" height="38" rx="12" fill="#6d28d9"/>
  <text x="138" y="363" fill="#ffffff" font-family="Arial, sans-serif" font-size="15" font-weight="800">Generate</text>
  <rect x="438" y="158" width="386" height="284" rx="20" fill="#1b1430"/>
  <text x="470" y="198" fill="#ffffff" font-family="Arial, sans-serif" font-size="22" font-weight="800">Generated Proposal</text>
  <rect x="470" y="228" width="276" height="14" rx="7" fill="#44345f"/>
  <rect x="470" y="256" width="310" height="14" rx="7" fill="#44345f"/>
  <rect x="470" y="284" width="226" height="14" rx="7" fill="#44345f"/>
  <rect x="470" y="330" width="126" height="52" rx="14" fill="#38e1c4"/>
  <text x="496" y="362" fill="#06121a" font-family="Arial, sans-serif" font-size="18" font-weight="800">Scope</text>
  <rect x="618" y="330" width="126" height="52" rx="14" fill="#6c8cff"/>
  <text x="642" y="362" fill="#ffffff" font-family="Arial, sans-serif" font-size="18" font-weight="800">Pricing</text>
  <rect x="470" y="402" width="246" height="12" rx="6" fill="#b06cff"/>
</svg>
