<svg xmlns="http://www.w3.org/2000/svg" viewBox="0 0 960 540" role="img" aria-labelledby="title desc">
  <title id="title">ARMilkfishSIMS augmented reality training preview</title>
  <desc id="desc">Augmented reality training system mockup for milkfish deboning with phone camera overlay, procedure steps, and performance indicators.</desc>
  <rect width="960" height="540" rx="28" fill="#08131f"/>
  <rect x="52" y="44" width="856" height="452" rx="28" fill="#0f1b2c" stroke="#22354c"/>
  <text x="84" y="96" fill="#ffffff" font-family="Arial, sans-serif" font-size="29" font-weight="800">ARMilkfishSIMS</text>
  <text x="84" y="123" fill="#9fb0c8" font-family="Arial, sans-serif" font-size="15">Augmented Reality Training System for Milkfish Deboning</text>
  <rect x="98" y="154" width="298" height="310" rx="34" fill="#111827" stroke="#38e1c4" stroke-width="4"/>
  <rect x="122" y="194" width="250" height="212" rx="18" fill="#d8eef5"/>
  <path d="M154 315c52-52 130-74 190-10-58 68-136 70-190 10Z" fill="#8ac4d3" stroke="#0f5f70" stroke-width="5"/>
  <circle cx="320" cy="302" r="8" fill="#0f5f70"/>
  <path d="M190 336c44 16 86 14 128-8" stroke="#0f5f70" stroke-width="4" fill="none" stroke-linecap="round"/>
  <path d="M208 280l42 72M260 270l-18 86M304 284l-52 68" stroke="#ffffff" stroke-width="4" stroke-linecap="round" opacity=".8"/>
  <rect x="146" y="424" width="202" height="18" rx="9" fill="#263244"/>
  <rect x="182" y="170" width="130" height="10" rx="5" fill="#263244"/>
  <g fill="none" stroke="#38e1c4" stroke-width="5" stroke-linecap="round">
    <path d="M136 220v-22h22"/>
    <path d="M358 220v-22h-22"/>
    <path d="M136 380v22h22"/>
    <path d="M358 380v22h-22"/>
  </g>
  <rect x="438" y="154" width="386" height="72" rx="18" fill="#162338" stroke="#2a3c52"/>
  <text x="468" y="188" fill="#ffffff" font-family="Arial, sans-serif" font-size="21" font-weight="800">Training Module</text>
  <text x="468" y="211" fill="#9fb0c8" font-family="Arial, sans-serif" font-size="14">Step-by-step deboning procedure with AR guidance</text>
  <rect x="438" y="254" width="178" height="90" rx="18" fill="#172033" stroke="#2a3c52"/>
  <text x="466" y="290" fill="#ffffff" font-family="Arial, sans-serif" font-size="18" font-weight="800">Procedure</text>
  <text x="466" y="322" fill="#38e1c4" font-family="Arial, sans-serif" font-size="28" font-weight="800">6 Steps</text>
  <rect x="646" y="254" width="178" height="90" rx="18" fill="#172033" stroke="#2a3c52"/>
  <text x="674" y="290" fill="#ffffff" font-family="Arial, sans-serif" font-size="18" font-weight="800">Mode</text>
  <text x="674" y="322" fill="#6c8cff" font-family="Arial, sans-serif" font-size="28" font-weight="800">AR Sim</text>
  <rect x="438" y="372" width="386" height="92" rx="18" fill="#172033" stroke="#2a3c52"/>
  <text x="468" y="406" fill="#ffffff" font-family="Arial, sans-serif" font-size="19" font-weight="800">Learning Feedback</text>
  <rect x="468" y="426" width="258" height="12" rx="6" fill="#263244"/>
  <rect x="468" y="426" width="192" height="12" rx="6" fill="#38e1c4"/>
  <rect x="468" y="448" width="204" height="10" rx="5" fill="#263244"/>
</svg>
