<svg xmlns="http://www.w3.org/2000/svg" viewBox="0 0 960 540" role="img" aria-labelledby="title desc">
  <title id="title">AI Proposal Generator preview</title>
  <desc id="desc">Professional portfolio mockup using demo data only.</desc>
  <rect width="960" height="540" rx="28" fill="#f3f6fb"/>
  <rect x="0" y="0" width="960" height="92" rx="28" fill="#0b1f3a"/>
  <rect x="0" y="68" width="960" height="24" fill="#0b1f3a"/>
  <text x="42" y="45" fill="#ffffff" font-family="Arial, sans-serif" font-size="30" font-weight="800">AI Proposal Generator</text>
  <text x="42" y="70" fill="#c7d4e8" font-family="Arial, sans-serif" font-size="14">Scope builder, pricing table, timeline, and proposal draft</text>
  <text x="628" y="55" fill="#c7d4e8" font-family="Arial, sans-serif" font-size="13">Source: Sample brief | Demo proposal only</text>
  <rect x="796" y="24" width="116" height="34" rx="17" fill="#ffffff" opacity="0.12"/>
  <text x="820" y="46" fill="#e8eef8" font-family="Arial, sans-serif" font-size="12" font-weight="700">DEMO DATA</text>
  <g><rect x="42" y="120" width="160" height="82" rx="16" fill="#ffffff" stroke="#dbe4ef"/><rect x="42" y="120" width="160" height="10" rx="5" fill="#2563eb"/><text x="60" y="154" fill="#5b6b84" font-family="Arial, sans-serif" font-size="14" font-weight="700">Drafts</text><text x="60" y="185" fill="#111827" font-family="Arial, sans-serif" font-size="27" font-weight="800">36</text><text x="60" y="200" fill="#60708a" font-family="Arial, sans-serif" font-size="12">sample proposals</text></g>
  <g><rect x="222" y="120" width="160" height="82" rx="16" fill="#ffffff" stroke="#dbe4ef"/><rect x="222" y="120" width="160" height="10" rx="5" fill="#22c55e"/><text x="240" y="154" fill="#5b6b84" font-family="Arial, sans-serif" font-size="14" font-weight="700">Time Saved</text><text x="240" y="185" fill="#111827" font-family="Arial, sans-serif" font-size="27" font-weight="800">74%</text><text x="240" y="200" fill="#60708a" font-family="Arial, sans-serif" font-size="12">mock estimate</text></g>
  <g><rect x="402" y="120" width="160" height="82" rx="16" fill="#ffffff" stroke="#dbe4ef"/><rect x="402" y="120" width="160" height="10" rx="5" fill="#14b8a6"/><text x="420" y="154" fill="#5b6b84" font-family="Arial, sans-serif" font-size="14" font-weight="700">Packages</text><text x="420" y="185" fill="#111827" font-family="Arial, sans-serif" font-size="27" font-weight="800">3</text><text x="420" y="200" fill="#60708a" font-family="Arial, sans-serif" font-size="12">demo tiers</text></g>
  <g><rect x="582" y="120" width="160" height="82" rx="16" fill="#ffffff" stroke="#dbe4ef"/><rect x="582" y="120" width="160" height="10" rx="5" fill="#7c3aed"/><text x="600" y="154" fill="#5b6b84" font-family="Arial, sans-serif" font-size="14" font-weight="700">Value</text><text x="600" y="185" fill="#111827" font-family="Arial, sans-serif" font-size="27" font-weight="800">$18.5K</text><text x="600" y="200" fill="#60708a" font-family="Arial, sans-serif" font-size="12">dummy quote</text></g>
  <g><rect x="762" y="120" width="160" height="82" rx="16" fill="#ffffff" stroke="#dbe4ef"/><rect x="762" y="120" width="160" height="10" rx="5" fill="#f59e0b"/><text x="780" y="154" fill="#5b6b84" font-family="Arial, sans-serif" font-size="14" font-weight="700">Status</text><text x="780" y="185" fill="#111827" font-family="Arial, sans-serif" font-size="27" font-weight="800">Ready</text><text x="780" y="200" fill="#60708a" font-family="Arial, sans-serif" font-size="12">export draft</text></g>
  <rect x="42" y="232" width="390" height="150" rx="18" fill="#ffffff" stroke="#dbe4ef"/>
  <text x="70" y="268" fill="#111827" font-family="Arial, sans-serif" font-size="20" font-weight="800">Package Builder</text>
  <rect x="78" y="292" width="88" height="58" rx="14" fill="#fffbeb" stroke="#fde68a"/><text x="102" y="324" fill="#92400e" font-family="Arial" font-size="13" font-weight="700">Basic</text><rect x="184" y="278" width="88" height="72" rx="14" fill="#fffbeb" stroke="#fbbf24"/><text x="202" y="318" fill="#92400e" font-family="Arial" font-size="13" font-weight="700">Growth</text><rect x="290" y="262" width="88" height="88" rx="14" fill="#fffbeb" stroke="#f59e0b"/><text x="306" y="312" fill="#92400e" font-family="Arial" font-size="13" font-weight="700">Premium</text>
  <rect x="462" y="232" width="456" height="150" rx="18" fill="#ffffff" stroke="#dbe4ef"/>
  <text x="490" y="268" fill="#111827" font-family="Arial, sans-serif" font-size="20" font-weight="800">Proposal Sections</text>
  <rect x="490" y="292" width="366" height="13" rx="7" fill="#fef3c7"/><rect x="490" y="320" width="300" height="13" rx="7" fill="#fef3c7"/><rect x="490" y="348" width="338" height="13" rx="7" fill="#fef3c7"/><rect x="828" y="280" width="58" height="30" rx="10" fill="#f59e0b"/><text x="846" y="300" fill="#111827" font-family="Arial" font-size="12" font-weight="700">PDF</text>
  <rect x="42" y="408" width="876" height="86" rx="18" fill="#ffffff" stroke="#dbe4ef"/>
  <text x="70" y="442" fill="#111827" font-family="Arial, sans-serif" font-size="20" font-weight="800">Key findings</text>
  <circle cx="76" cy="466" r="4" fill="#f59e0b"/><text x="92" y="471" fill="#182235" font-family="Arial, sans-serif" font-size="13">Uses dummy project briefs, package prices, and timelines.</text>
  <circle cx="76" cy="486" r="4" fill="#f59e0b"/><text x="92" y="491" fill="#182235" font-family="Arial, sans-serif" font-size="13">Shows a repeatable workflow for proposal writing and exports.</text>
</svg>
