<svg xmlns="http://www.w3.org/2000/svg" viewBox="0 0 960 540" role="img" aria-labelledby="title desc">
  <title id="title">SEO Audit Tool preview</title>
  <desc id="desc">SEO audit interface with site score, issue checklist, keyword table, and page health chart.</desc>
  <rect width="960" height="540" rx="28" fill="#0f172a"/>
  <rect x="42" y="42" width="876" height="456" rx="24" fill="#111827" stroke="#263244"/>
  <text x="76" y="92" fill="#ffffff" font-family="Arial, sans-serif" font-size="30" font-weight="800">SEO Audit Tool</text>
  <text x="76" y="118" fill="#93a1bd" font-family="Arial, sans-serif" font-size="15">Technical checks, metadata, content gaps, and action reports</text>
  <rect x="690" y="68" width="172" height="42" rx="12" fill="#38e1c4"/>
  <text x="734" y="95" fill="#06121a" font-family="Arial, sans-serif" font-size="16" font-weight="800">Run Audit</text>
  <circle cx="174" cy="236" r="76" fill="#162338" stroke="#263244" stroke-width="12"/>
  <path d="M174 160a76 76 0 1 1-63 118" stroke="#38e1c4" stroke-width="12" fill="none" stroke-linecap="round"/>
  <text x="140" y="246" fill="#ffffff" font-family="Arial, sans-serif" font-size="38" font-weight="800">91</text>
  <text x="138" y="274" fill="#93a1bd" font-family="Arial, sans-serif" font-size="14">SEO Score</text>
  <rect x="306" y="158" width="258" height="158" rx="18" fill="#172033" stroke="#263244"/>
  <text x="334" y="194" fill="#ffffff" font-family="Arial, sans-serif" font-size="20" font-weight="800">Audit Checklist</text>
  <g font-family="Arial, sans-serif" font-size="15" fill="#cbd5e1">
    <text x="334" y="230">✓ Title tags optimized</text>
    <text x="334" y="260">✓ Meta descriptions found</text>
    <text x="334" y="290">! 4 images missing alt text</text>
  </g>
  <rect x="596" y="158" width="266" height="158" rx="18" fill="#172033" stroke="#263244"/>
  <text x="624" y="194" fill="#ffffff" font-family="Arial, sans-serif" font-size="20" font-weight="800">Page Health</text>
  <rect x="626" y="228" width="186" height="13" rx="7" fill="#243249"/>
  <rect x="626" y="228" width="152" height="13" rx="7" fill="#38e1c4"/>
  <rect x="626" y="262" width="186" height="13" rx="7" fill="#243249"/>
  <rect x="626" y="262" width="120" height="13" rx="7" fill="#6c8cff"/>
  <rect x="626" y="296" width="186" height="13" rx="7" fill="#243249"/>
  <rect x="626" y="296" width="92" height="13" rx="7" fill="#f7c984"/>
  <rect x="76" y="350" width="786" height="104" rx="18" fill="#172033" stroke="#263244"/>
  <text x="104" y="386" fill="#ffffff" font-family="Arial, sans-serif" font-size="20" font-weight="800">Priority Fixes</text>
  <rect x="104" y="408" width="160" height="16" rx="8" fill="#263244"/>
  <rect x="292" y="408" width="120" height="16" rx="8" fill="#263244"/>
  <rect x="444" y="408" width="190" height="16" rx="8" fill="#263244"/>
  <rect x="662" y="408" width="96" height="16" rx="8" fill="#38e1c4"/>
</svg>
