<svg xmlns="http://www.w3.org/2000/svg" viewBox="0 0 960 540" role="img" aria-labelledby="title desc">
  <title id="title">Client Portal System preview</title>
  <desc id="desc">Professional portfolio mockup using demo data only.</desc>
  <rect width="960" height="540" rx="28" fill="#f3f6fb"/>
  <rect x="0" y="0" width="960" height="92" rx="28" fill="#0b1f3a"/>
  <rect x="0" y="68" width="960" height="24" fill="#0b1f3a"/>
  <text x="42" y="45" fill="#ffffff" font-family="Arial, sans-serif" font-size="30" font-weight="800">Client Portal System</text>
  <text x="42" y="70" fill="#c7d4e8" font-family="Arial, sans-serif" font-size="14">Projects, messages, tickets, invoices, and file sharing</text>
  <text x="628" y="55" fill="#c7d4e8" font-family="Arial, sans-serif" font-size="13">Source: Sample Client Workspace | Demo records</text>
  <rect x="796" y="24" width="116" height="34" rx="17" fill="#ffffff" opacity="0.12"/>
  <text x="820" y="46" fill="#e8eef8" font-family="Arial, sans-serif" font-size="12" font-weight="700">DEMO DATA</text>
  <g><rect x="42" y="120" width="160" height="82" rx="16" fill="#ffffff" stroke="#dbe4ef"/><rect x="42" y="120" width="160" height="10" rx="5" fill="#2563eb"/><text x="60" y="154" fill="#5b6b84" font-family="Arial, sans-serif" font-size="14" font-weight="700">Projects</text><text x="60" y="185" fill="#111827" font-family="Arial, sans-serif" font-size="27" font-weight="800">8</text><text x="60" y="200" fill="#60708a" font-family="Arial, sans-serif" font-size="12">sample active</text></g>
  <g><rect x="222" y="120" width="160" height="82" rx="16" fill="#ffffff" stroke="#dbe4ef"/><rect x="222" y="120" width="160" height="10" rx="5" fill="#22c55e"/><text x="240" y="154" fill="#5b6b84" font-family="Arial, sans-serif" font-size="14" font-weight="700">Tickets</text><text x="240" y="185" fill="#111827" font-family="Arial, sans-serif" font-size="27" font-weight="800">23</text><text x="240" y="200" fill="#60708a" font-family="Arial, sans-serif" font-size="12">demo queue</text></g>
  <g><rect x="402" y="120" width="160" height="82" rx="16" fill="#ffffff" stroke="#dbe4ef"/><rect x="402" y="120" width="160" height="10" rx="5" fill="#14b8a6"/><text x="420" y="154" fill="#5b6b84" font-family="Arial, sans-serif" font-size="14" font-weight="700">Files</text><text x="420" y="185" fill="#111827" font-family="Arial, sans-serif" font-size="27" font-weight="800">146</text><text x="420" y="200" fill="#60708a" font-family="Arial, sans-serif" font-size="12">mock uploads</text></g>
  <g><rect x="582" y="120" width="160" height="82" rx="16" fill="#ffffff" stroke="#dbe4ef"/><rect x="582" y="120" width="160" height="10" rx="5" fill="#7c3aed"/><text x="600" y="154" fill="#5b6b84" font-family="Arial, sans-serif" font-size="14" font-weight="700">Invoices</text><text x="600" y="185" fill="#111827" font-family="Arial, sans-serif" font-size="27" font-weight="800">$12.6K</text><text x="600" y="200" fill="#60708a" font-family="Arial, sans-serif" font-size="12">dummy total</text></g>
  <g><rect x="762" y="120" width="160" height="82" rx="16" fill="#ffffff" stroke="#dbe4ef"/><rect x="762" y="120" width="160" height="10" rx="5" fill="#f59e0b"/><text x="780" y="154" fill="#5b6b84" font-family="Arial, sans-serif" font-size="14" font-weight="700">SLA</text><text x="780" y="185" fill="#111827" font-family="Arial, sans-serif" font-size="27" font-weight="800">96%</text><text x="780" y="200" fill="#60708a" font-family="Arial, sans-serif" font-size="12">sample status</text></g>
  <rect x="42" y="232" width="390" height="150" rx="18" fill="#ffffff" stroke="#dbe4ef"/>
  <text x="70" y="268" fill="#111827" font-family="Arial, sans-serif" font-size="20" font-weight="800">Ticket Mix</text>
  <circle cx="180" cy="316" r="58" fill="none" stroke="#dbeafe" stroke-width="28"/><path d="M180 258a58 58 0 0 1 54 78" fill="none" stroke="#0ea5e9" stroke-width="28"/><path d="M234 336a58 58 0 0 1-90 32" fill="none" stroke="#22c55e" stroke-width="28"/><text x="286" y="302" fill="#5b6b84" font-family="Arial" font-size="13">Support 52%</text><text x="286" y="328" fill="#5b6b84" font-family="Arial" font-size="13">Billing 31%</text><text x="286" y="354" fill="#5b6b84" font-family="Arial" font-size="13">Files 17%</text>
  <rect x="462" y="232" width="456" height="150" rx="18" fill="#ffffff" stroke="#dbe4ef"/>
  <text x="490" y="268" fill="#111827" font-family="Arial, sans-serif" font-size="20" font-weight="800">Workspace Activity</text>
  <rect x="490" y="292" width="358" height="16" rx="8" fill="#e0f2fe"/><rect x="490" y="324" width="310" height="16" rx="8" fill="#e0f2fe"/><rect x="490" y="356" width="250" height="16" rx="8" fill="#e0f2fe"/><text x="490" y="285" fill="#60708a" font-family="Arial" font-size="12">Recent uploads, messages, approvals</text>
  <rect x="42" y="408" width="876" height="86" rx="18" fill="#ffffff" stroke="#dbe4ef"/>
  <text x="70" y="442" fill="#111827" font-family="Arial, sans-serif" font-size="20" font-weight="800">Key findings</text>
  <circle cx="76" cy="466" r="4" fill="#0ea5e9"/><text x="92" y="471" fill="#182235" font-family="Arial, sans-serif" font-size="13">Portal preview uses fake client data and sample totals.</text>
  <circle cx="76" cy="486" r="4" fill="#0ea5e9"/><text x="92" y="491" fill="#182235" font-family="Arial, sans-serif" font-size="13">Designed to show organized client communication workflows.</text>
</svg>
